<svg width="21" height="20" viewBox="0 0 21 20" fill="none" xmlns="http://www.w3.org/2000/svg">
<path d="M18.346 3.31354C18.2707 3.30578 18.1948 3.30578 18.1196 3.31354H2.65628C2.55718 3.31507 2.45873 3.32993 2.36359 3.35772L10.3437 11.3047L18.346 3.31354Z" fill="black"/>
<path d="M19.1632 4.08121L11.1223 12.089C10.9154 12.2947 10.6354 12.4102 10.3436 12.4102C10.0518 12.4102 9.7719 12.2947 9.56496 12.089L1.59585 4.14196C1.57135 4.232 1.55836 4.32478 1.55719 4.41809V15.4633C1.55719 15.7562 1.67356 16.0372 1.8807 16.2443C2.08783 16.4514 2.36877 16.5678 2.66171 16.5678H18.125C18.4179 16.5678 18.6989 16.4514 18.906 16.2443C19.1131 16.0372 19.2295 15.7562 19.2295 15.4633V4.41809C19.2251 4.30303 19.2027 4.18936 19.1632 4.08121ZM3.41831 15.4633H2.65066V14.6736L6.66559 10.6918L7.44428 11.4704L3.41831 15.4633ZM18.1139 15.4633H17.3408L13.3148 11.4704L14.0935 10.6918L18.1084 14.6736L18.1139 15.4633Z" fill="black"/>
</svg>
