<svg width="39" height="25" viewBox="0 0 39 25" fill="none" xmlns="http://www.w3.org/2000/svg">
<path fill-rule="evenodd" clip-rule="evenodd" d="M-5.46392e-07 12.5C-5.62491e-07 12.8683 0.146736 13.2215 0.407932 13.482C0.669124 13.7424 1.02338 13.8887 1.39277 13.8887L34.2426 13.8887L25.4765 22.6264C25.215 22.8871 25.0681 23.2408 25.0681 23.6096C25.0681 23.9783 25.215 24.332 25.4765 24.5927C25.738 24.8535 26.0927 25 26.4626 25C26.8324 25 27.1872 24.8535 27.4487 24.5928L38.5908 13.4832C38.7205 13.3542 38.8234 13.201 38.8936 13.0322C38.9639 12.8635 39 12.6827 39 12.5C39 12.3173 38.9639 12.1365 38.8936 11.9678C38.8234 11.799 38.7205 11.6458 38.5908 11.5168L27.4487 0.407252C27.3192 0.278137 27.1655 0.175718 26.9963 0.105841C26.8271 0.0359646 26.6457 -5.40022e-07 26.4626 -5.48027e-07C26.0927 -5.64194e-07 25.738 0.146492 25.4765 0.407252C25.215 0.668012 25.0681 1.02168 25.0681 1.39045C25.0681 1.75922 25.215 2.11288 25.4765 2.37364L34.2426 11.1113L1.39277 11.1113C1.02338 11.1113 0.669124 11.2576 0.407932 11.518C0.146736 11.7785 -5.30293e-07 12.1317 -5.46392e-07 12.5Z" fill="#85FA00"/>
</svg>
