<svg width="405" height="193" viewBox="0 0 405 193" fill="none" xmlns="http://www.w3.org/2000/svg">
<g style="mix-blend-mode:multiply">
<path d="M4.21778 192.773H421.771C422.627 192.773 423.449 192.432 424.054 191.827C424.66 191.221 425 190.4 425 189.543C425 188.687 424.66 187.865 424.055 187.258C423.449 186.652 422.628 186.31 421.771 186.309H4.21778C3.36087 186.31 2.53957 186.652 1.93418 187.258C1.32878 187.865 0.988768 188.687 0.98877 189.543C0.98877 190.4 1.32897 191.221 1.93453 191.827C2.54008 192.432 3.36139 192.773 4.21778 192.773Z" fill="#808080"/>
</g>
<path d="M384.526 189.852H367.952C336.091 189.852 336.091 130.17 367.952 130.17H384.526C418.753 130.17 418.753 189.852 384.526 189.852Z" fill="black"/>
<path d="M170.851 189.852H154.278C122.411 189.852 122.411 130.17 154.278 130.17H170.851C205.079 130.17 205.079 189.852 170.851 189.852Z" fill="black"/>
<path d="M19.9683 125.078H390.144V158.796C390.144 162.863 388.528 166.763 385.653 169.639C382.777 172.514 378.877 174.13 374.81 174.13H52.6527C42.6924 174.13 33.1322 170.211 26.0377 163.22L19.9683 157.248V125.078Z" fill="black"/>
<path d="M80.1764 189.852H63.6027C31.7356 189.852 31.7356 130.17 63.6027 130.17H80.1764C114.41 130.17 114.41 189.852 80.1764 189.852Z" fill="black"/>
<path d="M65.723 170.427C70.3281 170.427 74.0613 165.765 74.0613 160.014C74.0613 154.263 70.3281 149.601 65.723 149.601C61.1179 149.601 57.3848 154.263 57.3848 160.014C57.3848 165.765 61.1179 170.427 65.723 170.427Z" fill="#CCCCCC"/>
<path d="M65.7232 169.815C70.0569 169.815 73.57 165.427 73.57 160.014C73.57 154.601 70.0569 150.213 65.7232 150.213C61.3896 150.213 57.8765 154.601 57.8765 160.014C57.8765 165.427 61.3896 169.815 65.7232 169.815Z" fill="#999999"/>
<path d="M65.1745 151.476C65.197 151.581 65.2487 151.677 65.3236 151.754C65.3984 151.831 65.4934 151.885 65.5977 151.911C65.702 151.936 65.8113 151.932 65.9132 151.898C66.0151 151.864 66.1054 151.802 66.1737 151.72C66.2421 151.637 66.2858 151.537 66.2998 151.43C66.3138 151.324 66.2976 151.216 66.2529 151.118C66.2083 151.02 66.1371 150.937 66.0474 150.878C65.9578 150.819 65.8533 150.787 65.746 150.784C65.5785 150.8 65.4242 150.882 65.317 151.012C65.2098 151.141 65.1586 151.308 65.1745 151.476Z" fill="#333333"/>
<path d="M67.8321 151.859C67.7705 152.02 67.7664 152.198 67.8205 152.363C67.8746 152.527 67.9836 152.668 68.1292 152.762C68.2006 152.794 68.2784 152.81 68.3568 152.808C68.4352 152.806 68.5122 152.787 68.582 152.751C68.6518 152.716 68.7126 152.665 68.7599 152.602C68.8072 152.539 68.8397 152.467 68.8551 152.39C68.915 152.228 68.9176 152.049 68.8626 151.885C68.8075 151.721 68.698 151.581 68.5522 151.487C68.4811 151.456 68.4038 151.44 68.3261 151.443C68.2485 151.445 68.1723 151.465 68.1032 151.5C68.0341 151.536 67.9739 151.587 67.927 151.649C67.88 151.711 67.8476 151.782 67.8321 151.859Z" fill="#333333"/>
<path d="M70.558 154.665C70.8642 154.665 71.1124 154.355 71.1124 153.973C71.1124 153.591 70.8642 153.281 70.558 153.281C70.2519 153.281 70.0037 153.591 70.0037 153.973C70.0037 154.355 70.2519 154.665 70.558 154.665Z" fill="#333333"/>
<path d="M71.8267 156.105C71.6835 156.2 71.5764 156.341 71.5226 156.505C71.4687 156.669 71.4712 156.846 71.5296 157.008C71.5444 157.084 71.5763 157.157 71.6229 157.219C71.6695 157.282 71.7297 157.333 71.7988 157.37C71.868 157.406 71.9445 157.426 72.0225 157.429C72.1005 157.431 72.1782 157.416 72.2496 157.385C72.3947 157.291 72.5035 157.15 72.5585 156.986C72.6135 156.822 72.6114 156.645 72.5526 156.482C72.5369 156.405 72.5043 156.333 72.4571 156.27C72.4099 156.207 72.3493 156.156 72.2797 156.12C72.2101 156.084 72.1333 156.064 72.055 156.061C71.9766 156.058 71.8986 156.073 71.8267 156.105Z" fill="#333333"/>
<path d="M72.5583 159.323C72.4162 159.296 72.2692 159.313 72.1374 159.372C72.0056 159.432 71.8954 159.531 71.8218 159.655C71.7482 159.78 71.7147 159.924 71.726 160.068C71.7373 160.212 71.7928 160.349 71.885 160.461C71.9771 160.572 72.1014 160.653 72.2409 160.691C72.3803 160.729 72.5282 160.724 72.6643 160.675C72.8004 160.626 72.9182 160.536 73.0015 160.418C73.0848 160.3 73.1296 160.159 73.1298 160.014C73.1457 159.847 73.0944 159.68 72.9872 159.55C72.8801 159.42 72.7258 159.339 72.5583 159.323Z" fill="#333333"/>
<path d="M72.2269 162.637C72.1554 162.606 72.0778 162.591 71.9998 162.593C71.9217 162.596 71.8453 162.616 71.7761 162.653C71.7069 162.689 71.6468 162.74 71.6002 162.803C71.5536 162.865 71.5217 162.938 71.5068 163.014C71.4474 163.176 71.4444 163.354 71.4983 163.518C71.5523 163.681 71.66 163.822 71.804 163.917C71.8759 163.949 71.9538 163.964 72.0322 163.961C72.1106 163.958 72.1874 163.938 72.257 163.902C72.3266 163.866 72.3872 163.815 72.4344 163.752C72.4816 163.689 72.5142 163.617 72.5298 163.54C72.5887 163.378 72.5908 163.2 72.5358 163.036C72.4808 162.872 72.3719 162.731 72.2269 162.637Z" fill="#333333"/>
<path d="M70.558 166.741C70.8642 166.741 71.1124 166.431 71.1124 166.049C71.1124 165.667 70.8642 165.358 70.558 165.358C70.2519 165.358 70.0037 165.667 70.0037 166.049C70.0037 166.431 70.2519 166.741 70.558 166.741Z" fill="#333333"/>
<path d="M68.8551 167.632C68.8397 167.555 68.8072 167.483 68.7599 167.42C68.7126 167.358 68.6518 167.307 68.582 167.271C68.5122 167.235 68.4352 167.216 68.3568 167.214C68.2784 167.212 68.2006 167.228 68.1292 167.261C67.9836 167.354 67.8746 167.495 67.8205 167.659C67.7664 167.824 67.7705 168.002 67.8321 168.164C67.8476 168.24 67.88 168.311 67.927 168.373C67.9739 168.435 68.0341 168.486 68.1032 168.522C68.1723 168.557 68.2485 168.577 68.3261 168.579C68.4038 168.582 68.4811 168.566 68.5522 168.535C68.698 168.442 68.8075 168.301 68.8626 168.137C68.9176 167.973 68.915 167.795 68.8551 167.632Z" fill="#333333"/>
<path d="M66.2774 168.546C66.2549 168.442 66.2032 168.345 66.1284 168.268C66.0535 168.191 65.9585 168.137 65.8542 168.111C65.75 168.086 65.6406 168.09 65.5387 168.124C65.4369 168.158 65.3466 168.22 65.2782 168.303C65.2098 168.385 65.1661 168.486 65.1521 168.592C65.1381 168.698 65.1543 168.807 65.199 168.904C65.2436 169.002 65.3148 169.085 65.4045 169.144C65.4942 169.203 65.5986 169.236 65.7059 169.238C65.8734 169.222 66.0277 169.14 66.1349 169.011C66.2421 168.881 66.2934 168.714 66.2774 168.546Z" fill="#333333"/>
<path d="M63.62 168.164C63.6816 168.002 63.6857 167.824 63.6316 167.659C63.5774 167.495 63.4684 167.354 63.3228 167.261C63.2515 167.228 63.1737 167.212 63.0953 167.214C63.0169 167.216 62.9399 167.235 62.8701 167.271C62.8003 167.307 62.7395 167.358 62.6922 167.42C62.6449 167.483 62.6124 167.555 62.597 167.632C62.5371 167.795 62.5344 167.973 62.5895 168.137C62.6446 168.301 62.7541 168.442 62.8999 168.535C62.971 168.566 63.0482 168.582 63.1259 168.579C63.2036 168.577 63.2798 168.557 63.3489 168.522C63.418 168.486 63.4782 168.435 63.5251 168.373C63.572 168.311 63.6045 168.24 63.62 168.164Z" fill="#333333"/>
<path d="M61.2825 166.535C61.3887 166.394 61.4461 166.222 61.4461 166.046C61.4461 165.87 61.3887 165.698 61.2825 165.557C61.2382 165.495 61.1795 165.444 61.1114 165.409C61.0433 165.374 60.9677 165.355 60.891 165.355C60.8144 165.355 60.7389 165.374 60.6707 165.409C60.6026 165.444 60.5439 165.495 60.4996 165.557C60.3943 165.699 60.3374 165.87 60.3374 166.046C60.3374 166.222 60.3943 166.394 60.4996 166.535C60.5439 166.597 60.6026 166.648 60.6707 166.683C60.7389 166.719 60.8144 166.737 60.891 166.737C60.9677 166.737 61.0433 166.719 61.1114 166.683C61.1795 166.648 61.2382 166.597 61.2825 166.535Z" fill="#333333"/>
<path d="M59.6195 163.94C59.7653 163.847 59.8749 163.706 59.9299 163.542C59.985 163.378 59.9824 163.2 59.9224 163.037C59.9068 162.96 59.8742 162.888 59.827 162.825C59.7798 162.763 59.7192 162.712 59.6496 162.675C59.58 162.639 59.5032 162.619 59.4248 162.616C59.3465 162.614 59.2685 162.629 59.1966 162.66C59.0534 162.756 58.9463 162.897 58.8924 163.06C58.8386 163.224 58.841 163.401 58.8994 163.563C58.9143 163.64 58.9462 163.712 58.9928 163.775C59.0394 163.837 59.0995 163.889 59.1687 163.925C59.2379 163.961 59.3143 163.981 59.3924 163.984C59.4704 163.987 59.5481 163.972 59.6195 163.94Z" fill="#333333"/>
<path d="M58.8878 160.7C59.0315 160.728 59.1804 160.711 59.3141 160.651C59.4478 160.592 59.5597 160.492 59.6344 160.366C59.7091 160.24 59.743 160.094 59.7313 159.948C59.7197 159.802 59.6631 159.663 59.5693 159.551C59.4756 159.438 59.3493 159.358 59.2078 159.32C59.0663 159.282 58.9166 159.289 58.7792 159.34C58.6418 159.391 58.5236 159.483 58.4407 159.603C58.3578 159.724 58.3143 159.868 58.3163 160.014C58.3084 160.097 58.317 160.18 58.3415 160.259C58.3661 160.339 58.4061 160.412 58.4592 160.476C58.5123 160.54 58.5775 160.592 58.6511 160.631C58.7247 160.669 58.8051 160.693 58.8878 160.7Z" fill="#333333"/>
<path d="M59.1966 157.385C59.2685 157.416 59.3465 157.431 59.4248 157.429C59.5032 157.426 59.58 157.406 59.6496 157.37C59.7192 157.334 59.7798 157.282 59.827 157.22C59.8742 157.157 59.9068 157.085 59.9224 157.008C59.9813 156.845 59.9834 156.667 59.9284 156.503C59.8734 156.34 59.7646 156.199 59.6195 156.105C59.5481 156.073 59.4704 156.058 59.3924 156.061C59.3143 156.064 59.2379 156.084 59.1687 156.12C59.0995 156.156 59.0394 156.208 58.9928 156.27C58.9462 156.333 58.9143 156.405 58.8994 156.482C58.841 156.644 58.8386 156.821 58.8924 156.985C58.9463 157.148 59.0534 157.289 59.1966 157.385Z" fill="#333333"/>
<path d="M60.4996 154.465C60.5439 154.527 60.6026 154.578 60.6707 154.613C60.7389 154.648 60.8144 154.667 60.891 154.667C60.9677 154.667 61.0433 154.648 61.1114 154.613C61.1795 154.578 61.2382 154.527 61.2825 154.465C61.3887 154.324 61.4461 154.152 61.4461 153.976C61.4461 153.8 61.3887 153.628 61.2825 153.487C61.2382 153.425 61.1795 153.374 61.1114 153.339C61.0433 153.303 60.9677 153.285 60.891 153.285C60.8144 153.285 60.7389 153.303 60.6707 153.339C60.6026 153.374 60.5439 153.425 60.4996 153.487C60.3943 153.628 60.3374 153.8 60.3374 153.976C60.3374 154.152 60.3943 154.323 60.4996 154.465Z" fill="#333333"/>
<path d="M62.597 152.39C62.6124 152.467 62.6449 152.539 62.6922 152.602C62.7395 152.665 62.8003 152.716 62.8701 152.751C62.9399 152.787 63.0169 152.806 63.0953 152.808C63.1737 152.81 63.2515 152.794 63.3228 152.762C63.4684 152.668 63.5774 152.527 63.6316 152.363C63.6857 152.198 63.6816 152.02 63.62 151.859C63.6045 151.782 63.572 151.711 63.5251 151.649C63.4782 151.587 63.418 151.536 63.3489 151.5C63.2798 151.465 63.2036 151.445 63.1259 151.443C63.0482 151.44 62.971 151.456 62.8999 151.487C62.7541 151.581 62.6446 151.721 62.5895 151.885C62.5344 152.049 62.5371 152.228 62.597 152.39Z" fill="#333333"/>
<path d="M39.7024 160.014C39.7024 176.49 50.401 189.852 63.6028 189.852C76.8045 189.852 87.4974 176.49 87.4974 160.014C87.4974 143.537 76.7988 130.17 63.6028 130.17C50.4067 130.17 39.7024 143.532 39.7024 160.014ZM44.5773 160.014C44.5773 146.869 53.0985 136.262 63.6028 136.262C74.107 136.262 82.6225 146.892 82.6225 160.014C82.6225 173.136 74.107 183.76 63.6028 183.76C53.0985 183.76 44.5773 173.13 44.5773 160.014Z" fill="black"/>
<path d="M44.5774 160.014C44.5774 173.13 53.0985 183.76 63.6028 183.76C74.1071 183.76 82.6225 173.13 82.6225 160.014C82.6225 146.898 74.1071 136.262 63.6028 136.262C53.0985 136.262 44.5774 146.892 44.5774 160.014ZM48.4979 160.014C48.4979 149.595 55.2588 141.154 63.6028 141.154C71.9468 141.154 78.702 149.595 78.702 160.014C78.702 170.432 71.9411 178.874 63.6028 178.874C55.2645 178.874 48.4979 170.427 48.4979 160.014Z" fill="#828282"/>
<path d="M44.5774 160.014C44.5774 173.13 53.0985 183.76 63.6028 183.76C74.1071 183.76 82.6225 173.13 82.6225 160.014C82.6225 146.898 74.1071 136.262 63.6028 136.262C53.0985 136.262 44.5774 146.892 44.5774 160.014ZM46.7891 160.014C46.7891 148.418 54.3158 139.017 63.6028 139.017C72.8898 139.017 80.4108 148.418 80.4108 160.014C80.4108 171.61 72.8841 181.005 63.6028 181.005C54.3216 181.005 46.7891 171.604 46.7891 160.014Z" fill="#DEDEDE"/>
<path d="M44.5774 160.014C44.5774 173.13 53.0928 183.76 63.6028 183.76C74.1128 183.76 82.6225 173.13 82.6225 160.014C82.6225 146.898 74.1071 136.262 63.6028 136.262C53.0985 136.262 44.5774 146.892 44.5774 160.014ZM61.151 152.487C61.2253 153.904 60.008 155.025 58.9336 154.499L47.9207 149.081C47.7506 148.97 47.6301 148.797 47.5844 148.599C47.5386 148.401 47.571 148.193 47.6749 148.018C48.9455 145.505 50.6611 143.244 52.7385 141.343C54.7333 139.487 57.1174 138.101 59.7166 137.285C60.0823 137.177 60.4195 137.468 60.4424 137.908L61.151 152.487ZM79.4392 149.43L68.5806 154.779C67.5233 155.299 66.2946 154.207 66.3632 152.767L67.0833 138.011C67.0833 137.559 67.4433 137.268 67.8148 137.388C70.2845 138.223 72.5496 139.571 74.4614 141.343C76.6385 143.337 78.4203 145.724 79.7135 148.378C79.8116 148.553 79.8395 148.759 79.7918 148.954C79.7441 149.15 79.6242 149.319 79.4564 149.43H79.4392ZM76.5417 175.57L69.1121 164.3C68.3863 163.203 68.8549 161.403 69.9579 161.043L81.4223 157.345C81.771 157.231 82.0967 157.551 82.1196 158.025C82.2656 161.104 81.9438 164.187 81.1652 167.169C80.412 170.166 79.1476 173.009 77.4275 175.576C77.3839 175.653 77.3205 175.717 77.2438 175.761C77.1672 175.806 77.0801 175.829 76.9915 175.828C76.9029 175.828 76.8161 175.804 76.7401 175.758C76.664 175.713 76.6014 175.648 76.5588 175.57H76.5417ZM55.7389 180.211L62.0254 167.895C62.1422 167.628 62.3341 167.402 62.5777 167.242C62.8213 167.083 63.106 166.998 63.3971 166.998C63.6881 166.998 63.9728 167.083 64.2164 167.242C64.46 167.402 64.6519 167.628 64.7687 167.895L71.1295 180.365C71.2233 180.543 71.2448 180.751 71.1894 180.945C71.1341 181.139 71.0062 181.303 70.8323 181.405C68.5252 182.541 65.9835 183.118 63.4123 183.09C60.841 183.062 58.3124 182.43 56.0304 181.245C55.8608 181.141 55.7379 180.975 55.6868 180.783C55.6358 180.59 55.6605 180.386 55.756 180.211H55.7389ZM46.0233 167.141C45.2149 164.028 44.9005 160.807 45.0917 157.596C45.0917 157.133 45.4461 156.825 45.789 156.939L57.1162 160.591C58.2192 160.945 58.6879 162.751 57.962 163.849L50.4296 175.279C50.3836 175.357 50.3171 175.422 50.2373 175.465C50.1575 175.509 50.0673 175.53 49.9764 175.527C49.8855 175.523 49.7973 175.495 49.7211 175.445C49.6449 175.396 49.5836 175.326 49.5438 175.244C47.9357 172.754 46.7465 170.016 46.0233 167.141Z" fill="#808080"/>
<path d="M44.5774 160.014C44.5774 173.13 53.0928 183.76 63.6028 183.76C74.1128 183.76 82.6225 173.13 82.6225 160.014C82.6225 146.898 74.1071 136.262 63.6028 136.262C53.0985 136.262 44.5774 146.892 44.5774 160.014ZM59.5965 155.636L48.0407 149.287C47.8622 149.164 47.7339 148.98 47.6794 148.771C47.6248 148.561 47.6476 148.338 47.7435 148.144C48.9542 145.576 50.6503 143.266 52.7385 141.343C54.7382 139.483 57.1606 138.137 59.7966 137.422C60.1738 137.325 60.5281 137.657 60.5624 138.125L61.8197 153.624C61.9397 155.133 60.711 156.248 59.5965 155.636ZM79.3306 149.652L67.9005 155.939C66.7918 156.556 65.5631 155.436 65.6831 153.927L66.9633 138.222C66.9975 137.742 67.3633 137.417 67.7405 137.519C70.2455 138.262 72.5454 139.572 74.4614 141.349C76.6609 143.358 78.4284 145.795 79.6564 148.509C79.7521 148.707 79.7719 148.932 79.7118 149.143C79.6517 149.354 79.516 149.535 79.3306 149.652ZM76.3588 175.502L68.0491 163.883C67.2433 162.74 67.7119 160.945 68.9007 160.62L81.2395 157.276C81.6167 157.179 81.9767 157.511 82.0167 157.985C82.233 161.058 81.9492 164.147 81.1766 167.129C80.423 170.131 79.1125 172.966 77.3132 175.485C77.2616 175.564 77.1912 175.629 77.1082 175.674C77.0251 175.72 76.9322 175.744 76.8375 175.744C76.7429 175.745 76.6497 175.722 76.5661 175.678C76.4826 175.633 76.4113 175.569 76.3588 175.49V175.502ZM55.7846 179.959L62.0712 166.5C62.17 166.215 62.3551 165.968 62.601 165.793C62.8468 165.618 63.141 165.524 63.4428 165.524C63.7445 165.524 64.0388 165.618 64.2846 165.793C64.5304 165.968 64.7156 166.215 64.8144 166.5L71.141 180.114C71.2381 180.308 71.2616 180.531 71.2069 180.741C71.1523 180.951 71.0233 181.134 70.8438 181.257C68.5667 182.493 66.0113 183.126 63.4205 183.096C60.8297 183.066 58.2896 182.374 56.0418 181.085C55.8643 180.961 55.7375 180.777 55.685 180.567C55.6325 180.357 55.6577 180.135 55.756 179.942L55.7846 179.959ZM46.069 167.152C45.2588 164.022 44.9882 160.777 45.2689 157.556C45.3089 157.088 45.669 156.762 46.0404 156.865L58.2307 160.168C59.4194 160.488 59.888 162.294 59.0765 163.426L50.6239 175.176C50.5721 175.256 50.501 175.322 50.4172 175.368C50.3333 175.413 50.2393 175.437 50.1439 175.437C50.0484 175.437 49.9544 175.413 49.8705 175.368C49.7867 175.322 49.7156 175.256 49.6638 175.176C47.9838 172.734 46.7511 170.014 46.0233 167.141L46.069 167.152Z" fill="url(#paint0_radial_346_204)"/>
<path d="M61.1453 160.014C61.1453 161.729 62.2483 163.077 63.6027 163.077C64.9572 163.077 66.0545 161.706 66.0545 160.014C66.0545 158.322 64.9572 156.945 63.6027 156.945C62.2483 156.945 61.1453 158.317 61.1453 160.014Z" fill="#E6E6E6"/>
<path d="M62.9856 152.79H64.2201L64.8316 154.122L64.2201 155.459H62.9856L62.3684 154.122L62.9856 152.79Z" fill="#333333"/>
<path d="M63.2371 153.333H63.9686L64.3344 154.122L63.9686 154.916H63.2371L62.8713 154.122L63.2371 153.333Z" fill="black"/>
<path d="M68.9122 157.048L69.2952 158.511L68.4665 159.654L67.2606 159.334L66.8777 157.871L67.7064 156.728L68.9122 157.048Z" fill="#333333"/>
<path d="M68.575 157.511L68.8036 158.379L68.3121 159.06L67.5977 158.871L67.3691 158.002L67.8606 157.322L68.575 157.511Z" fill="black"/>
<path d="M67.5006 165.403L66.5005 166.306L65.3746 165.683L65.2432 164.151L66.2433 163.243L67.3692 163.871L67.5006 165.403Z" fill="#333333"/>
<path d="M67.0434 165.146L66.449 165.683L65.7804 165.312L65.7061 164.403L66.2947 163.866L66.9634 164.237L67.0434 165.146Z" fill="black"/>
<path d="M60.6995 166.306L59.7051 165.403L59.8308 163.871L60.9567 163.243L61.9568 164.151L61.8254 165.683L60.6995 166.306Z" fill="#333333"/>
<path d="M60.7511 165.683L60.1567 165.146L60.2367 164.237L60.9054 163.866L61.4998 164.403L61.4198 165.312L60.7511 165.683Z" fill="black"/>
<path d="M57.9106 158.511L58.2936 157.048L59.4994 156.728L60.3224 157.871L59.9395 159.334L58.7336 159.654L57.9106 158.511Z" fill="#333333"/>
<path d="M58.4021 158.379L58.625 157.511L59.3451 157.322L59.8309 158.002L59.608 158.871L58.8879 159.06L58.4021 158.379Z" fill="black"/>
<path d="M293.851 189.852H277.277C245.416 189.852 245.416 130.17 277.277 130.17H293.851C328.078 130.17 328.078 189.852 293.851 189.852Z" fill="black"/>
<path d="M279.398 170.427C284.003 170.427 287.736 165.765 287.736 160.014C287.736 154.263 284.003 149.601 279.398 149.601C274.793 149.601 271.059 154.263 271.059 160.014C271.059 165.765 274.793 170.427 279.398 170.427Z" fill="#CCCCCC"/>
<path d="M279.398 169.815C283.731 169.815 287.244 165.427 287.244 160.014C287.244 154.601 283.731 150.213 279.398 150.213C275.064 150.213 271.551 154.601 271.551 160.014C271.551 165.427 275.064 169.815 279.398 169.815Z" fill="#999999"/>
<path d="M278.843 151.476C278.866 151.581 278.917 151.677 278.992 151.754C279.067 151.831 279.162 151.885 279.266 151.911C279.371 151.936 279.48 151.932 279.582 151.898C279.684 151.864 279.774 151.802 279.842 151.72C279.911 151.637 279.954 151.537 279.969 151.43C279.983 151.324 279.966 151.216 279.922 151.118C279.877 151.02 279.806 150.937 279.716 150.878C279.626 150.819 279.522 150.787 279.415 150.784C279.247 150.8 279.093 150.882 278.986 151.012C278.879 151.141 278.827 151.308 278.843 151.476Z" fill="#333333"/>
<path d="M281.501 151.858C281.441 152.021 281.438 152.199 281.493 152.363C281.548 152.528 281.658 152.668 281.804 152.761C281.875 152.794 281.952 152.81 282.03 152.808C282.108 152.807 282.185 152.787 282.254 152.751C282.324 152.715 282.384 152.664 282.431 152.602C282.477 152.539 282.509 152.467 282.524 152.39C282.584 152.228 282.588 152.05 282.534 151.886C282.48 151.722 282.371 151.581 282.227 151.487C282.155 151.456 282.078 151.44 282 151.443C281.922 151.445 281.845 151.465 281.775 151.5C281.706 151.536 281.645 151.586 281.598 151.648C281.55 151.71 281.517 151.782 281.501 151.858Z" fill="#333333"/>
<path d="M283.838 153.487C283.735 153.63 283.68 153.801 283.68 153.976C283.68 154.151 283.735 154.322 283.838 154.465C283.883 154.527 283.941 154.578 284.009 154.613C284.078 154.648 284.153 154.667 284.23 154.667C284.306 154.667 284.382 154.648 284.45 154.613C284.518 154.578 284.577 154.527 284.621 154.465C284.726 154.323 284.783 154.152 284.783 153.976C284.783 153.8 284.726 153.628 284.621 153.487C284.577 153.425 284.518 153.374 284.45 153.339C284.382 153.303 284.306 153.285 284.23 153.285C284.153 153.285 284.078 153.303 284.009 153.339C283.941 153.374 283.883 153.425 283.838 153.487Z" fill="#333333"/>
<path d="M285.501 156.105C285.356 156.199 285.248 156.34 285.194 156.504C285.14 156.668 285.144 156.846 285.204 157.008C285.219 157.084 285.251 157.157 285.297 157.219C285.344 157.282 285.404 157.333 285.473 157.37C285.543 157.406 285.619 157.426 285.697 157.429C285.775 157.431 285.853 157.416 285.924 157.385C286.069 157.291 286.178 157.15 286.233 156.986C286.288 156.822 286.286 156.645 286.227 156.482C286.211 156.405 286.179 156.333 286.132 156.27C286.084 156.207 286.024 156.156 285.954 156.12C285.885 156.084 285.808 156.064 285.73 156.061C285.651 156.058 285.573 156.073 285.501 156.105Z" fill="#333333"/>
<path d="M286.233 159.323C286.091 159.296 285.944 159.313 285.812 159.372C285.68 159.432 285.57 159.531 285.496 159.655C285.423 159.78 285.389 159.924 285.401 160.068C285.412 160.212 285.467 160.349 285.56 160.461C285.652 160.572 285.776 160.653 285.915 160.691C286.055 160.729 286.203 160.724 286.339 160.675C286.475 160.626 286.593 160.536 286.676 160.418C286.759 160.3 286.804 160.159 286.804 160.014C286.82 159.847 286.769 159.68 286.662 159.55C286.555 159.42 286.4 159.339 286.233 159.323Z" fill="#333333"/>
<path d="M285.924 162.637C285.853 162.606 285.775 162.591 285.697 162.593C285.619 162.596 285.543 162.616 285.473 162.653C285.404 162.689 285.344 162.74 285.297 162.803C285.251 162.865 285.219 162.938 285.204 163.014C285.144 163.176 285.14 163.354 285.194 163.518C285.248 163.682 285.356 163.823 285.501 163.917C285.573 163.949 285.651 163.964 285.73 163.961C285.808 163.958 285.885 163.938 285.954 163.902C286.024 163.866 286.084 163.815 286.132 163.752C286.179 163.689 286.211 163.617 286.227 163.54C286.286 163.378 286.288 163.2 286.233 163.036C286.178 162.872 286.069 162.731 285.924 162.637Z" fill="#333333"/>
<path d="M284.621 165.557C284.577 165.495 284.518 165.444 284.45 165.409C284.382 165.374 284.306 165.355 284.23 165.355C284.153 165.355 284.078 165.374 284.009 165.409C283.941 165.444 283.883 165.495 283.838 165.557C283.735 165.7 283.68 165.871 283.68 166.046C283.68 166.222 283.735 166.392 283.838 166.535C283.883 166.597 283.941 166.648 284.009 166.683C284.078 166.719 284.153 166.737 284.23 166.737C284.306 166.737 284.382 166.719 284.45 166.683C284.518 166.648 284.577 166.597 284.621 166.535C284.727 166.394 284.785 166.222 284.785 166.046C284.785 165.87 284.727 165.698 284.621 165.557Z" fill="#333333"/>
<path d="M282.541 167.632C282.526 167.555 282.495 167.483 282.448 167.42C282.401 167.358 282.341 167.307 282.271 167.271C282.202 167.235 282.125 167.216 282.047 167.214C281.969 167.212 281.892 167.228 281.821 167.261C281.675 167.354 281.565 167.495 281.51 167.659C281.455 167.823 281.458 168.001 281.518 168.164C281.534 168.24 281.567 168.312 281.615 168.374C281.662 168.436 281.723 168.486 281.793 168.522C281.862 168.557 281.939 168.577 282.017 168.579C282.095 168.582 282.172 168.567 282.244 168.535C282.389 168.442 282.498 168.301 282.552 168.136C282.607 167.972 282.602 167.794 282.541 167.632Z" fill="#333333"/>
<path d="M279.952 168.546C279.929 168.442 279.878 168.345 279.803 168.268C279.728 168.191 279.633 168.137 279.529 168.111C279.425 168.086 279.315 168.09 279.213 168.124C279.111 168.158 279.021 168.22 278.953 168.303C278.884 168.385 278.841 168.486 278.827 168.592C278.813 168.698 278.829 168.807 278.874 168.904C278.918 169.002 278.989 169.085 279.079 169.144C279.169 169.203 279.273 169.236 279.38 169.238C279.548 169.222 279.702 169.14 279.809 169.011C279.917 168.881 279.968 168.714 279.952 168.546Z" fill="#333333"/>
<path d="M277.294 168.164C277.354 168.002 277.357 167.824 277.303 167.66C277.249 167.496 277.141 167.356 276.997 167.261C276.926 167.228 276.848 167.212 276.77 167.214C276.691 167.216 276.614 167.235 276.545 167.271C276.475 167.307 276.414 167.358 276.367 167.42C276.319 167.483 276.287 167.555 276.271 167.632C276.212 167.794 276.209 167.971 276.263 168.135C276.317 168.299 276.425 168.44 276.569 168.535C276.64 168.566 276.718 168.582 276.796 168.579C276.874 168.577 276.95 168.557 277.02 168.522C277.089 168.486 277.15 168.436 277.198 168.374C277.245 168.312 277.278 168.24 277.294 168.164Z" fill="#333333"/>
<path d="M274.957 166.535C275.063 166.394 275.12 166.222 275.12 166.046C275.12 165.87 275.063 165.698 274.957 165.557C274.912 165.495 274.854 165.444 274.786 165.409C274.718 165.374 274.642 165.355 274.565 165.355C274.489 165.355 274.413 165.374 274.345 165.409C274.277 165.444 274.218 165.495 274.174 165.557C274.069 165.699 274.012 165.87 274.012 166.046C274.012 166.222 274.069 166.394 274.174 166.535C274.218 166.597 274.277 166.648 274.345 166.683C274.413 166.719 274.489 166.737 274.565 166.737C274.642 166.737 274.718 166.719 274.786 166.683C274.854 166.648 274.912 166.597 274.957 166.535Z" fill="#333333"/>
<path d="M273.294 163.94C273.44 163.847 273.549 163.706 273.604 163.542C273.66 163.378 273.657 163.2 273.597 163.037C273.581 162.96 273.549 162.888 273.502 162.825C273.454 162.763 273.394 162.712 273.324 162.675C273.255 162.639 273.178 162.619 273.099 162.616C273.021 162.614 272.943 162.629 272.871 162.66C272.726 162.754 272.618 162.895 272.564 163.059C272.51 163.224 272.513 163.401 272.574 163.563C272.589 163.64 272.621 163.712 272.667 163.775C272.714 163.837 272.774 163.889 272.843 163.925C272.912 163.961 272.989 163.981 273.067 163.984C273.145 163.987 273.223 163.972 273.294 163.94Z" fill="#333333"/>
<path d="M272.562 160.7C272.705 160.727 272.852 160.709 272.984 160.65C273.116 160.59 273.226 160.491 273.3 160.366C273.373 160.241 273.406 160.097 273.394 159.952C273.383 159.808 273.327 159.67 273.234 159.559C273.141 159.448 273.016 159.368 272.876 159.33C272.736 159.293 272.588 159.299 272.452 159.349C272.316 159.399 272.199 159.489 272.116 159.608C272.034 159.727 271.99 159.869 271.991 160.014C271.983 160.097 271.992 160.18 272.016 160.259C272.041 160.339 272.081 160.412 272.134 160.476C272.187 160.54 272.252 160.592 272.326 160.631C272.399 160.669 272.48 160.693 272.562 160.7Z" fill="#333333"/>
<path d="M272.871 157.385C272.943 157.416 273.021 157.431 273.099 157.429C273.178 157.426 273.255 157.406 273.324 157.37C273.394 157.334 273.454 157.282 273.502 157.22C273.549 157.157 273.581 157.085 273.597 157.008C273.656 156.845 273.658 156.667 273.603 156.503C273.548 156.34 273.439 156.199 273.294 156.105C273.223 156.073 273.145 156.058 273.067 156.061C272.989 156.064 272.912 156.084 272.843 156.12C272.774 156.156 272.714 156.208 272.667 156.27C272.621 156.333 272.589 156.405 272.574 156.482C272.513 156.644 272.51 156.822 272.564 156.986C272.618 157.15 272.726 157.291 272.871 157.385Z" fill="#333333"/>
<path d="M274.174 154.465C274.218 154.527 274.277 154.578 274.345 154.613C274.413 154.648 274.489 154.667 274.565 154.667C274.642 154.667 274.718 154.648 274.786 154.613C274.854 154.578 274.912 154.527 274.957 154.465C275.062 154.323 275.119 154.152 275.119 153.976C275.119 153.8 275.062 153.628 274.957 153.487C274.912 153.425 274.854 153.374 274.786 153.339C274.718 153.303 274.642 153.285 274.565 153.285C274.489 153.285 274.413 153.303 274.345 153.339C274.277 153.374 274.218 153.425 274.174 153.487C274.068 153.628 274.01 153.8 274.01 153.976C274.01 154.152 274.068 154.324 274.174 154.465Z" fill="#333333"/>
<path d="M276.254 152.39C276.27 152.467 276.302 152.539 276.35 152.602C276.397 152.664 276.458 152.715 276.527 152.751C276.597 152.787 276.674 152.806 276.753 152.808C276.831 152.81 276.909 152.794 276.98 152.761C277.124 152.666 277.232 152.526 277.286 152.362C277.34 152.198 277.337 152.02 277.277 151.858C277.261 151.782 277.228 151.71 277.18 151.648C277.133 151.586 277.072 151.536 277.003 151.5C276.933 151.465 276.857 151.445 276.779 151.443C276.701 151.44 276.623 151.456 276.552 151.487C276.408 151.582 276.3 151.723 276.246 151.887C276.192 152.051 276.195 152.228 276.254 152.39Z" fill="#333333"/>
<path d="M253.394 160.014C253.394 176.49 264.093 189.852 277.289 189.852C290.485 189.852 301.172 176.513 301.172 160.014C301.172 143.515 290.473 130.17 277.272 130.17C264.07 130.17 253.394 143.532 253.394 160.014ZM258.269 160.014C258.269 146.869 266.784 136.262 277.289 136.262C287.793 136.262 296.314 146.892 296.314 160.014C296.314 173.136 287.799 183.76 277.289 183.76C266.779 183.76 258.252 173.13 258.252 160.014H258.269Z" fill="black"/>
<path d="M258.252 160.014C258.252 173.13 266.767 183.76 277.272 183.76C287.776 183.76 296.297 173.13 296.297 160.014C296.297 146.898 287.782 136.262 277.272 136.262C266.762 136.262 258.252 146.892 258.252 160.014ZM262.172 160.014C262.172 149.595 268.933 141.154 277.272 141.154C285.61 141.154 292.377 149.595 292.377 160.014C292.377 170.432 285.616 178.874 277.272 178.874C268.928 178.874 262.172 170.427 262.172 160.014Z" fill="#828282"/>
<path d="M258.252 160.014C258.252 173.13 266.767 183.76 277.272 183.76C287.776 183.76 296.297 173.13 296.297 160.014C296.297 146.898 287.782 136.262 277.272 136.262C266.762 136.262 258.252 146.892 258.252 160.014ZM260.464 160.014C260.464 148.418 267.99 139.017 277.272 139.017C286.553 139.017 294.085 148.418 294.085 160.014C294.085 171.61 286.541 181.005 277.272 181.005C268.002 181.005 260.464 171.604 260.464 160.014Z" fill="#DEDEDE"/>
<path d="M258.252 160.014C258.252 173.13 266.767 183.76 277.272 183.76C287.776 183.76 296.297 173.13 296.297 160.014C296.297 146.898 287.782 136.262 277.272 136.262C266.762 136.262 258.252 146.892 258.252 160.014ZM274.826 152.487C274.9 153.904 273.683 155.025 272.608 154.499L261.59 149.081C261.422 148.968 261.303 148.795 261.259 148.597C261.214 148.4 261.246 148.192 261.35 148.018C262.62 145.505 264.336 143.244 266.413 141.343C268.408 139.487 270.792 138.101 273.391 137.285C273.757 137.177 274.088 137.468 274.111 137.908L274.826 152.487ZM293.114 149.43L282.255 154.779C281.198 155.299 279.969 154.207 280.038 152.767L280.758 138.011C280.758 137.559 281.124 137.268 281.495 137.388C283.965 138.223 286.23 139.571 288.142 141.343C290.319 143.338 292.103 145.725 293.4 148.378C293.496 148.555 293.523 148.762 293.473 148.957C293.423 149.152 293.301 149.321 293.131 149.43H293.114ZM290.216 175.57L282.787 164.3C282.061 163.203 282.529 161.403 283.632 161.043L295.114 157.345C295.457 157.231 295.788 157.551 295.811 158.025C295.955 161.104 295.633 164.186 294.857 167.169C294.097 170.155 292.831 172.989 291.114 175.547C291.073 175.629 291.012 175.698 290.936 175.746C290.859 175.795 290.771 175.822 290.68 175.825C290.59 175.827 290.5 175.805 290.421 175.76C290.343 175.715 290.278 175.649 290.233 175.57H290.216ZM269.413 180.211L275.7 167.895C275.817 167.628 276.009 167.402 276.252 167.242C276.496 167.083 276.781 166.998 277.072 166.998C277.363 166.998 277.647 167.083 277.891 167.242C278.135 167.402 278.327 167.628 278.443 167.895L284.827 180.365C284.922 180.544 284.943 180.752 284.887 180.947C284.83 181.141 284.7 181.305 284.524 181.405C282.218 182.541 279.677 183.118 277.107 183.09C274.537 183.062 272.009 182.43 269.728 181.245C269.554 181.145 269.427 180.981 269.371 180.788C269.316 180.595 269.337 180.388 269.431 180.211H269.413ZM259.681 167.141C258.869 164.028 258.555 160.807 258.749 157.596C258.778 157.133 259.103 156.825 259.446 156.939L270.768 160.591C271.871 160.945 272.34 162.751 271.619 163.849L264.087 175.279C264.041 175.357 263.975 175.422 263.895 175.465C263.815 175.509 263.725 175.53 263.634 175.527C263.543 175.523 263.455 175.495 263.379 175.445C263.302 175.396 263.241 175.326 263.201 175.244C261.593 172.754 260.404 170.016 259.681 167.141Z" fill="#808080"/>
<path d="M258.252 160.014C258.252 173.13 266.767 183.76 277.272 183.76C287.776 183.76 296.297 173.13 296.297 160.014C296.297 146.898 287.782 136.262 277.272 136.262C266.762 136.262 258.252 146.892 258.252 160.014ZM273.271 155.636L261.71 149.287C261.533 149.162 261.407 148.978 261.353 148.769C261.3 148.559 261.323 148.338 261.418 148.144C262.627 145.575 264.323 143.265 266.413 141.343C268.413 139.483 270.835 138.137 273.471 137.422C273.843 137.325 274.203 137.657 274.237 138.125L275.489 153.653C275.609 155.133 274.386 156.248 273.271 155.636ZM293.005 149.652L281.575 155.939C280.432 156.556 279.238 155.436 279.358 153.927L280.638 138.222C280.672 137.742 281.038 137.417 281.415 137.519C283.92 138.262 286.22 139.572 288.136 141.349C290.318 143.366 292.068 145.807 293.28 148.521C293.378 148.711 293.405 148.93 293.354 149.138C293.304 149.346 293.18 149.529 293.005 149.652ZM290.033 175.502L281.724 163.883C280.918 162.74 281.386 160.945 282.575 160.62L294.914 157.276C295.291 157.179 295.651 157.511 295.686 157.985C295.907 161.058 295.625 164.147 294.851 167.129C294.096 170.132 292.783 172.966 290.982 175.485C290.93 175.563 290.86 175.627 290.778 175.671C290.695 175.716 290.603 175.74 290.509 175.74C290.416 175.741 290.323 175.718 290.24 175.675C290.157 175.631 290.086 175.568 290.033 175.49V175.502ZM269.431 179.942L275.717 166.483C275.816 166.198 276.001 165.951 276.247 165.776C276.493 165.601 276.787 165.507 277.089 165.507C277.391 165.507 277.685 165.601 277.931 165.776C278.176 165.951 278.362 166.198 278.46 166.483L284.827 180.114C284.924 180.309 284.946 180.532 284.89 180.742C284.835 180.952 284.704 181.135 284.524 181.257C282.248 182.493 279.694 183.126 277.104 183.096C274.514 183.066 271.975 182.374 269.728 181.085C269.548 180.963 269.419 180.78 269.365 180.57C269.31 180.359 269.333 180.136 269.431 179.942ZM259.681 167.141C258.869 164.011 258.596 160.766 258.875 157.545C258.921 157.076 259.281 156.751 259.646 156.853L271.842 160.157C273.031 160.477 273.5 162.283 272.688 163.414L264.281 175.176C264.23 175.256 264.158 175.322 264.075 175.368C263.991 175.413 263.897 175.437 263.801 175.437C263.706 175.437 263.612 175.413 263.528 175.368C263.444 175.322 263.373 175.256 263.321 175.176C261.639 172.736 260.406 170.014 259.681 167.141Z" fill="url(#paint1_radial_346_204)"/>
<path d="M277.272 163.077C278.626 163.077 279.723 161.706 279.723 160.014C279.723 158.322 278.626 156.951 277.272 156.951C275.918 156.951 274.82 158.322 274.82 160.014C274.82 161.706 275.918 163.077 277.272 163.077Z" fill="#E6E6E6"/>
<path d="M276.66 152.79H277.889L278.506 154.122L277.889 155.459H276.66L276.043 154.122L276.66 152.79Z" fill="#333333"/>
<path d="M276.906 153.333H277.643L278.009 154.122L277.643 154.916H276.906L276.54 154.122L276.906 153.333Z" fill="black"/>
<path d="M282.587 157.048L282.964 158.511L282.141 159.654L280.935 159.334L280.552 157.871L281.381 156.728L282.587 157.048Z" fill="#333333"/>
<path d="M282.249 157.511L282.478 158.379L281.986 159.06L281.266 158.871L281.043 158.002L281.535 157.322L282.249 157.511Z" fill="black"/>
<path d="M281.175 165.403L280.175 166.306L279.049 165.683L278.917 164.151L279.918 163.243L281.043 163.871L281.175 165.403Z" fill="#333333"/>
<path d="M280.718 165.146L280.123 165.683L279.455 165.312L279.375 164.403L279.969 163.866L280.638 164.237L280.718 165.146Z" fill="black"/>
<path d="M274.374 166.306L273.374 165.403L273.505 163.871L274.631 163.243L275.631 164.151L275.5 165.683L274.374 166.306Z" fill="#333333"/>
<path d="M274.425 165.683L273.831 165.146L273.911 164.237L274.58 163.866L275.174 164.403L275.094 165.312L274.425 165.683Z" fill="black"/>
<path d="M271.585 158.511L271.962 157.048L273.168 156.728L273.997 157.871L273.614 159.334L272.408 159.654L271.585 158.511Z" fill="#333333"/>
<path d="M272.071 158.379L272.299 157.511L273.014 157.322L273.505 158.002L273.277 158.871L272.562 159.06L272.071 158.379Z" fill="black"/>
<path fill-rule="evenodd" clip-rule="evenodd" d="M376.914 76.5799H363.495C363.039 76.5804 362.586 76.511 362.152 76.3741L358.225 75.1682V70.6819L361.506 64.8183C361.904 64.1076 362.485 63.5162 363.188 63.1052C363.891 62.6943 364.692 62.4787 365.506 62.4808H376.936C378.149 62.4808 379.312 62.9625 380.169 63.8199C381.027 64.6774 381.508 65.8403 381.508 67.0529V72.0307C381.505 72.6311 381.384 73.225 381.152 73.7786C380.919 74.3321 380.58 74.8345 380.153 75.2569C379.727 75.6793 379.221 76.0136 378.665 76.2406C378.109 76.4676 377.514 76.5829 376.914 76.5799Z" fill="black"/>
<path fill-rule="evenodd" clip-rule="evenodd" d="M363.495 76.5799C363.039 76.5804 362.586 76.511 362.152 76.3741L358.225 75.1682V70.6819L361.506 64.8183C361.904 64.1076 362.485 63.5162 363.188 63.1052C363.891 62.6943 364.692 62.4787 365.506 62.4808H369.473C368.658 62.4787 367.858 62.6943 367.154 63.1052C366.451 63.5162 365.87 64.1076 365.472 64.8183L362.192 70.6819V75.1682L366.124 76.3741C366.556 76.5106 367.007 76.58 367.461 76.5799H363.495Z" fill="#4D4D4D"/>
<path d="M197.661 26.8933V79.8033H376.691L336.114 26.8933H197.661ZM293.514 29.6365H331.627L350.236 53.3769V77.0715H293.514V29.6365Z" fill="#333333"/>
<path d="M240.158 61.9609C242.701 63.3268 256.634 75.5341 256.634 75.5341C263.964 76.3623 271.347 76.626 278.717 76.3228L279.86 81.1234C268.51 82.9008 257.206 84.1181 256.126 83.981C255.368 83.9511 254.621 83.7966 253.914 83.5238C253.497 83.2552 237.729 76.3571 235.946 72.0136C234.409 68.2531 235.472 59.4405 240.158 61.9609Z" fill="#414042"/>
<path d="M278.718 76.3227C278.718 76.3227 280.466 72.7108 282.061 71.985C283.655 71.2592 287.382 72.145 288.347 72.2308C289.313 72.3165 291.056 76.6314 290.485 77.4657C289.913 78.3001 286.301 80.5462 285.576 80.8948C284.85 81.2434 279.889 81.112 279.889 81.112L278.718 76.3227Z" fill="#FED0B8"/>
<path d="M223.676 58.3317C223.676 58.3317 218.829 59.6576 215.966 60.8349C213.103 62.0122 213.143 68.0302 212.331 77.38C211.52 86.7298 211.794 98.5543 211.794 98.5543C215.92 99.1384 220.081 99.4325 224.247 99.4344C227.938 99.4578 231.626 99.2421 235.289 98.7886C235.26 91.1704 237.323 80.3747 238.409 75.9798C239.329 73.6938 241.684 63.1781 240.158 61.9836C238.632 60.7892 235.654 59.7548 235.654 59.7548L223.676 58.3317Z" fill="black"/>
<path d="M235.706 64.8755L232.848 62.018L232.431 67.413L230.145 67.4587L230.34 61.9151L227.031 64.9669L223.676 58.3318L226.27 57.0916L234.317 58.3032L235.672 59.7319L235.706 64.8755Z" fill="white"/>
<path d="M236.437 51.4964L234.3 58.3031L232.643 60.9606L230.677 61.0863L226.253 57.0858L228.539 50.462L236.437 51.4964Z" fill="#FED0B8"/>
<path d="M228.539 50.4677C228.631 53.8568 230.351 56.6629 234.294 58.3031L236.437 51.4965L228.539 50.4677Z" fill="#FEB087"/>
<path d="M247.976 42.8382C246.592 42.0349 245.053 41.5325 243.461 41.3637C242.438 41.2894 238.746 41.638 238.746 41.638C240.078 38.7348 247.05 37.1289 247.976 42.8382Z" fill="#173F5C"/>
<path d="M225.105 48.4962C223.321 44.4957 223.219 39.4321 223.607 39.0092C224.238 38.4982 225.009 38.1913 225.819 38.1291C230.711 30.4481 241.044 33.5571 242.644 39.2721C243.106 41.0283 243.059 42.8798 242.507 44.61L225.105 48.4962Z" fill="#654E3B"/>
<path d="M242.381 40.272C242.381 40.272 242.701 42.9467 242.701 43.4439C242.701 43.9411 242.518 46.7529 242.427 48.7474C242.335 50.742 242.564 51.965 242.244 53.4166C241.924 54.8683 238.981 57.2229 237.941 57.7658C237.375 58.0153 236.762 58.1404 236.144 58.1325C235.526 58.1246 234.916 57.984 234.357 57.7201C233.18 57.2229 229.385 54.291 228.694 51.1077C227.836 47.1072 228.648 45.4384 228.648 44.7583C228.374 44.1394 228.225 43.4724 228.209 42.7957C228.193 42.119 228.311 41.4459 228.556 40.8149C228.877 40.2434 231.231 40.1806 233.997 40.592C236.763 41.0035 239.935 40.9978 242.381 40.272Z" fill="#FED0B8"/>
<path d="M233.546 54.2113C233.485 53.9396 233.439 53.6649 233.408 53.3883C235.358 53.6477 237.334 53.6284 239.278 53.3311C239.218 53.5505 239.146 53.7662 239.061 53.9769C238.227 54.1359 237.383 54.2371 236.535 54.2798C235.538 54.3341 234.539 54.3112 233.546 54.2113Z" fill="white"/>
<path d="M237.1 55.4855C237.259 55.6597 237.397 55.8515 237.512 56.057C236.089 57.1372 234.3 56.9314 233.62 54.474C234.237 54.3768 235.963 54.2111 237.1 55.4855Z" fill="#D26E6C"/>
<path d="M236.535 54.2511C237.383 54.2084 238.227 54.1072 239.061 53.9482C238.743 54.7803 238.208 55.5123 237.512 56.0685C237.397 55.8629 237.259 55.6712 237.1 55.497C235.957 54.2225 234.243 54.3882 233.62 54.4968C233.62 54.3997 233.569 54.2968 233.546 54.1939C234.539 54.2901 235.538 54.3092 236.535 54.2511Z" fill="#A0281E"/>
<path d="M233.997 40.592C236.763 40.9978 239.935 40.9978 242.381 40.272V40.392C241.398 40.9178 239.804 41.2321 237.769 41.2493C235.232 41.2493 229.837 40.0491 228.911 40.7749C228.692 40.9343 228.499 41.1272 228.339 41.3464C228.381 41.1607 228.444 40.9804 228.528 40.8092C228.877 40.272 231.231 40.1806 233.997 40.592Z" fill="#FD9C8C"/>
<path d="M231.271 47.9246C231.271 48.6504 231.671 49.2391 232.157 49.2391C232.643 49.2391 233.043 48.6675 233.043 47.9246C233.043 47.1816 232.643 46.6158 232.157 46.6158C231.671 46.6158 231.271 47.2216 231.271 47.9246Z" fill="#492117"/>
<path d="M238.918 47.9246C238.918 48.6504 239.318 49.2391 239.804 49.2391C240.29 49.2391 240.69 48.6675 240.69 47.9246C240.69 47.1816 240.29 46.6158 239.804 46.6158C239.318 46.6158 238.918 47.2216 238.918 47.9246Z" fill="#492117"/>
<path d="M233.689 44.8443C232.335 44.7899 230.982 44.9678 229.688 45.3701C229.876 44.9436 230.214 44.6003 230.637 44.4042C231.396 44.1275 232.184 43.9358 232.986 43.8327C233.191 43.8441 233.517 44.1813 233.689 44.8443Z" fill="#492117"/>
<path d="M239.432 45.0328C240.322 44.9441 241.22 45.0716 242.05 45.4042C241.968 45.1329 241.828 44.883 241.638 44.6727C241.183 44.4023 240.674 44.2346 240.147 44.1812C239.678 44.1984 239.432 45.0328 239.432 45.0328Z" fill="#492117"/>
<path d="M238.232 47.7703C238.58 48.9997 239.162 50.1504 239.947 51.1593C240.381 51.7708 238.958 52.5766 237.781 52.8738C238.872 52.0166 238.924 51.6279 238.781 51.1593C238.431 50.0631 238.246 48.9209 238.232 47.7703Z" fill="#FD9C8C"/>
<path d="M228.471 47.6616C228.128 47.0043 226.568 46.4386 225.407 47.2329C224.247 48.0273 224.836 50.662 226.133 51.5364C227.431 52.4108 228.625 52.1079 228.945 51.6735L228.471 47.6616Z" fill="#FED0B8"/>
<path d="M227.602 48.2447C227.432 48.0259 227.196 47.8681 226.929 47.7949C226.662 47.7218 226.378 47.7372 226.12 47.839C225.863 47.9407 225.645 48.1233 225.5 48.3593C225.355 48.5952 225.29 48.8719 225.316 49.1477C225.379 50.5707 226.67 51.4623 227.693 51.1651C228.716 50.8679 228.385 49.2105 227.602 48.2447Z" fill="#FD9C8C"/>
<path d="M223.561 43.4839C226.175 42.7585 228.856 42.3009 231.563 42.118C239.975 38.5633 243.53 39.1748 243.53 39.1748C243.484 37.6189 243.208 36.0783 242.713 34.6027C241.958 32.7568 236.832 30.0878 232.523 30.4993C228.214 30.9108 223.767 34.1227 223.087 37.1345C222.533 39.4891 223.561 43.4839 223.561 43.4839Z" fill="#D1D3D4"/>
<path d="M228.631 42.4324C229.557 38.1061 236.009 35.963 240.524 36.0315C245.039 36.1001 248.216 39.8378 248.725 42.3924C248.931 43.4154 248.113 43.5354 247.839 42.701C247.639 42.0838 247.222 39.1119 243.05 39.4491C238.878 39.7863 239.049 43.5468 237.032 43.8954C235.015 44.2441 232.82 42.781 228.631 42.4324Z" fill="#414042"/>
<path d="M270.654 97.7028C263.527 97.0227 259.349 88.4272 261.349 78.5459C263.35 68.6646 270.768 61.1778 277.895 61.8579C285.021 62.538 289.199 71.1335 287.199 81.0148C285.198 90.8961 277.78 98.3828 270.654 97.7028ZM277.82 64.9669C272.282 64.4354 266.424 70.682 264.767 78.8716C263.11 87.0613 266.27 94.1708 271.814 94.7024C277.357 95.2338 283.215 88.9873 284.873 80.7919C286.53 72.5965 283.364 65.4927 277.82 64.9669Z" fill="#4D4D4D"/>
<path d="M286.193 74.2483L277.231 77.7687L266.093 72.328L265.418 75.6542L273.722 82.2608L270.665 95.0968L272.762 95.3025L278.203 82.6894L285.524 77.5687L286.193 74.2483Z" fill="#4D4D4D"/>
<path d="M339.92 69.5332H277.923C276.267 69.5011 274.647 70.0237 273.321 71.0177C271.996 72.0118 271.041 73.4204 270.608 75.0197L268.413 83.7866H379.285L355.494 72.928C350.605 70.6966 345.294 69.539 339.92 69.5332Z" fill="black"/>
<path d="M297.834 43.9296H320.626C322.469 43.9296 323.964 42.4353 323.964 40.592V36.8772C323.964 35.0339 322.469 33.5396 320.626 33.5396H297.834C295.991 33.5396 294.497 35.0339 294.497 36.8772V40.592C294.497 42.4353 295.991 43.9296 297.834 43.9296Z" fill="black"/>
<path d="M308.127 35.1284H310.322V29.1562H308.127V35.1284Z" fill="black"/>
<path opacity="0.75" d="M376.691 79.8033H283.724L251.142 26.8933H336.108L376.691 79.8033Z" fill="#1A1A1A"/>
<path d="M255.2 29.1564H334.994L372.096 77.5343H284.993L255.2 29.1564ZM251.142 26.8704L283.718 79.7803H376.691L336.114 26.8704H251.142Z" fill="black"/>
<path d="M0.0114746 132.096V147.938C0.0114746 153.545 7.44104 166.798 17.4995 166.798H37.1993C33.2731 114.179 91.1437 113.648 95.55 166.798H251.028C251.028 166.798 246.21 127.135 276.826 127.135C307.441 127.135 304.967 168.804 313.785 168.804H404.843C410.895 168.804 418.142 161.946 419.788 157.894C421.434 153.842 421.502 139.548 420.982 138.24C420.462 136.931 419.565 136.274 417.993 135.382V128.753C418.11 120.747 416.326 112.828 412.787 105.647C411.644 103.589 396.831 89.4274 376.691 79.7918H283.724L251.148 26.8818H336.108C336.108 26.8818 317.82 0.986908 294.491 0.986908H27.2437C6.54378 0.986908 2.76042 53.3368 2.76042 127.432C2.76042 127.444 0.0114746 129.907 0.0114746 132.096ZM197.655 26.8932H245.313L273.111 79.8032H197.672L197.655 26.8932Z" fill="#F1F1F1"/>
<path d="M295.983 135.399C306.927 147.549 307.47 168.804 313.768 168.804H404.843C410.901 168.804 418.148 161.946 419.794 157.894C421.44 153.842 421.508 139.548 420.988 138.239C420.468 136.931 419.565 136.274 417.999 135.382L295.983 135.399Z" fill="#333333"/>
<path d="M369.77 133.159H403.489C404.618 133.161 405.708 132.746 406.549 131.992C407.39 131.239 407.922 130.201 408.043 129.078L409.249 117.134C409.3 116.641 409.246 116.142 409.092 115.671C408.937 115.2 408.686 114.766 408.354 114.399C408.021 114.031 407.616 113.737 407.162 113.535C406.709 113.334 406.219 113.23 405.723 113.231H356.002C355.445 113.23 354.898 113.378 354.417 113.66C353.937 113.943 353.541 114.348 353.27 114.835C353 115.322 352.864 115.873 352.878 116.43C352.893 116.987 353.056 117.53 353.35 118.003L359.123 127.238C360.25 129.046 361.819 130.538 363.681 131.574C365.544 132.61 367.639 133.155 369.77 133.159Z" fill="black"/>
<path d="M353.671 130.17C347.704 113.162 334.177 105.024 311.951 107.001C311.951 112.196 314.18 121.62 321.14 126.095C328.101 130.57 340.669 131.05 353.671 130.17Z" fill="black"/>
<path d="M363.952 150.944H404.157C406.035 150.944 407.558 149.422 407.558 147.544V145.229C407.558 143.351 406.035 141.829 404.157 141.829H363.952C362.074 141.829 360.551 143.351 360.551 145.229V147.544C360.551 149.422 362.074 150.944 363.952 150.944Z" fill="#4D4D4D"/>
<path d="M339.64 150.944H347.012C348.774 150.944 350.201 149.516 350.201 147.755V145.018C350.201 143.257 348.774 141.829 347.012 141.829H339.64C337.879 141.829 336.451 143.257 336.451 145.018V147.755C336.451 149.516 337.879 150.944 339.64 150.944Z" fill="#FBB03B"/>
<g style="mix-blend-mode:multiply" opacity="0.5">
<path d="M410.495 111.933H344.601L344.521 111.859C337.405 105.647 326.49 103.035 311.99 104.081H311.859L311.768 103.984C303.197 95.0671 293.747 87.0387 283.564 80.0203C283.533 79.9993 283.507 79.9725 283.487 79.9414C283.467 79.9104 283.454 79.8757 283.447 79.8393C283.44 79.803 283.441 79.7657 283.449 79.7296C283.456 79.6935 283.471 79.6592 283.492 79.6288C283.513 79.5984 283.54 79.5725 283.571 79.5524C283.602 79.5324 283.637 79.5186 283.673 79.512C283.71 79.5054 283.747 79.506 283.783 79.5138C283.819 79.5215 283.853 79.5364 283.884 79.5574C294.064 86.5695 303.511 94.5902 312.082 103.498C326.615 102.463 337.622 105.104 344.812 111.339H409.929C410.026 109.499 411.381 106.898 412.347 105.715C412.397 105.665 412.464 105.636 412.535 105.632C412.605 105.629 412.675 105.652 412.729 105.696C412.784 105.741 412.82 105.805 412.831 105.875C412.842 105.945 412.826 106.016 412.787 106.075C411.798 107.275 410.449 109.973 410.501 111.619L410.495 111.933Z" fill="#808080"/>
</g>
<path d="M216.086 99.2743H204.907C204.207 99.2743 203.536 98.9961 203.04 98.5009C202.545 98.0058 202.267 97.3342 202.267 96.6339V94.8908C202.267 94.5877 202.388 94.297 202.602 94.0826C202.816 93.8683 203.107 93.7478 203.41 93.7478H217.561C217.864 93.7478 218.154 93.8683 218.369 94.0826C218.583 94.297 218.704 94.5877 218.704 94.8908V96.6339C218.704 97.3303 218.429 97.9984 217.938 98.4929C217.448 98.9874 216.782 99.2683 216.086 99.2743Z" fill="black"/>
<g style="mix-blend-mode:multiply" opacity="0.5">
<path d="M179.796 74.2482V85.4268C179.796 86.1271 179.517 86.7987 179.022 87.2938C178.527 87.789 177.856 88.0672 177.155 88.0672H175.412C175.109 88.0672 174.818 87.9467 174.604 87.7324C174.39 87.518 174.269 87.2273 174.269 86.9242V72.7565C174.269 72.4534 174.39 72.1627 174.604 71.9483C174.818 71.7339 175.109 71.6135 175.412 71.6135H177.167C177.864 71.6165 178.532 71.8953 179.024 72.3889C179.517 72.8825 179.794 73.5509 179.796 74.2482Z" fill="#808080"/>
</g>
<g style="mix-blend-mode:multiply" opacity="0.5">
<path d="M188.077 161.991H106.831C105.132 161.988 103.504 161.311 102.303 160.109C101.102 158.907 100.426 157.278 100.425 155.579V26.7388C100.426 25.0401 101.102 23.4115 102.303 22.2103C103.504 21.0092 105.133 20.3337 106.831 20.3322H188.077V161.991ZM106.831 20.898C105.283 20.901 103.799 21.5174 102.705 22.6121C101.61 23.7068 100.994 25.1906 100.991 26.7388V155.579C100.992 157.128 101.608 158.613 102.703 159.709C103.798 160.805 105.282 161.422 106.831 161.425H187.511V20.898H106.831Z" fill="#808080"/>
</g>
<g style="mix-blend-mode:multiply">
<path d="M22.9231 146.389H36.1477C36.7707 142.166 39.8739 136.519 43.3144 133.159H22.9231V146.389Z" fill="#E6E6E6"/>
</g>
<g style="mix-blend-mode:multiply">
<g style="mix-blend-mode:multiply">
<path d="M100.711 146.389H187.797V133.159H100.711V146.389Z" fill="#E6E6E6"/>
</g>
<g style="mix-blend-mode:multiply">
<path d="M93.6413 146.389H100.705V133.159H84.4915C88.707 136.637 91.8744 141.217 93.6413 146.389Z" fill="#E6E6E6"/>
</g>
<g style="mix-blend-mode:multiply">
<path d="M187.791 146.389H249.222C250.102 141.817 252.217 136.731 255.509 133.159H187.791V146.389Z" fill="#E6E6E6"/>
</g>
</g>
<path d="M31.7757 166.798H17.4881C7.401 166.798 0 153.573 0 147.938V132.096C0 129.907 2.74894 127.444 2.74894 127.444H10.2871C12.8547 127.444 15.3172 128.464 17.1328 130.279C18.9484 132.095 19.9684 134.557 19.9684 137.125V145.909C19.9681 151.533 22.1644 156.935 26.0892 160.963L31.8043 166.786L31.7757 166.798Z" fill="#333333"/>
<g style="mix-blend-mode:multiply" opacity="0.5">
<path d="M248.29 161.991H197.386V79.5174H273.397V124.129L273.162 124.169C256.234 127.107 247.868 139.737 248.285 161.7L248.29 161.991ZM197.941 161.42H247.713C247.37 139.411 255.817 126.701 272.831 123.649V80.0832H197.958L197.941 161.42Z" fill="#808080"/>
</g>
<path d="M365.198 174.41H404.357V159.162H365.198V174.41Z" fill="#F2F2F2"/>
<g style="mix-blend-mode:multiply" opacity="0.2">
<path d="M243.884 18.7777C243.673 18.7759 243.469 18.6966 243.313 18.5549C236.003 11.7671 226.393 7.99968 216.418 8.01059H31.7757C31.5484 8.01059 31.3303 7.92026 31.1695 7.7595C31.0088 7.59873 30.9185 7.38069 30.9185 7.15333C30.9185 6.92597 31.0088 6.70792 31.1695 6.54715C31.3303 6.38639 31.5484 6.29607 31.7757 6.29607H216.418C226.819 6.28618 236.839 10.2101 244.467 17.2804C244.631 17.4356 244.727 17.6486 244.736 17.874C244.744 18.0994 244.664 18.3192 244.513 18.4863C244.433 18.5751 244.337 18.6468 244.229 18.6969C244.121 18.7471 244.003 18.7746 243.884 18.7777Z" fill="#808080"/>
</g>
<path d="M215.709 60.8634C213.697 61.7721 212.526 62.6179 209.171 67.7557C205.119 73.9794 200.187 81.3633 200.656 85.421C200.873 87.2898 202.742 87.7527 203.759 87.707C210.88 87.3698 218.132 82.9235 224.967 80.7232L223.676 76.3169C218.229 77.3056 215.143 77.6828 214.229 77.5342C214.229 77.5342 215.498 76.3569 217.966 73.5908C220.281 70.979 220.441 58.7202 215.709 60.8634Z" fill="black"/>
<path d="M214.212 77.5343C209.502 77.38 206.102 78.1058 204.222 79.8203C204.527 79.0927 205.011 78.4542 205.63 77.9645C206.248 77.4748 206.981 77.1498 207.759 77.02C210.6 76.4484 214.212 77.5343 214.212 77.5343Z" fill="#737373"/>
<path d="M230.802 74.2995C230.802 74.2995 234.494 74.2595 234.803 74.5567C235.112 74.8539 235.58 77.0028 235.58 77.0028L230.802 74.2995Z" fill="#FEB087"/>
<path d="M223.676 76.3168C221.521 77.717 222.31 80.7232 224.984 80.7232C225.932 80.5987 226.847 80.2962 227.682 79.8316C229.231 78.6886 230.5 77.5456 231.362 77.5456H236.357C236.357 77.5456 231.871 74.4195 230.82 74.3109C229.768 74.2023 223.676 76.3168 223.676 76.3168Z" fill="#FED0B8"/>
<path fill-rule="evenodd" clip-rule="evenodd" d="M237.741 76.5799H253.171C253.694 76.5789 254.214 76.4999 254.714 76.3456L259.241 74.9511V69.8075L255.463 63.0523C255.009 62.2385 254.345 61.5605 253.542 61.0884C252.738 60.6162 251.823 60.367 250.891 60.3663H237.746C237.057 60.3655 236.374 60.5007 235.737 60.764C235.1 61.0273 234.521 61.4136 234.033 61.9009C233.545 62.3881 233.158 62.9668 232.894 63.6037C232.63 64.2406 232.494 64.9232 232.494 65.6127V71.3277C232.494 72.7197 233.047 74.0547 234.03 75.0395C235.014 76.0243 236.349 76.5784 237.741 76.5799Z" fill="black"/>
<path fill-rule="evenodd" clip-rule="evenodd" d="M237.741 60.3491C237.051 60.3483 236.368 60.4835 235.731 60.7468C235.094 61.0101 234.515 61.3965 234.027 61.8837C233.539 62.371 233.152 62.9496 232.888 63.5865C232.624 64.2234 232.489 64.9061 232.489 65.5955V71.3106C232.489 72.7035 233.042 74.0394 234.027 75.0244C235.012 76.0093 236.348 76.5627 237.741 76.5627H241.655C240.263 76.5627 238.927 76.0093 237.942 75.0244C236.957 74.0394 236.403 72.7035 236.403 71.3106V65.5955C236.403 64.9061 236.539 64.2234 236.803 63.5865C237.067 62.9496 237.454 62.371 237.942 61.8837C238.43 61.3965 239.009 61.0101 239.646 60.7468C240.283 60.4835 240.966 60.3483 241.655 60.3491H237.741Z" fill="#4D4D4D"/>
<defs>
<radialGradient id="paint0_radial_346_204" cx="0" cy="0" r="1" gradientUnits="userSpaceOnUse" gradientTransform="translate(62.3873 160.014) scale(25.3328 19.7912)">
<stop stop-color="#B3B3B3"/>
<stop offset="0.13" stop-color="#B7B7B7"/>
<stop offset="0.27" stop-color="#C5C5C5"/>
<stop offset="0.42" stop-color="#DBDBDB"/>
<stop offset="0.58" stop-color="#F9F9F9"/>
<stop offset="0.6" stop-color="white"/>
<stop offset="1" stop-color="#B3B3B3"/>
</radialGradient>
<radialGradient id="paint1_radial_346_204" cx="0" cy="0" r="1" gradientUnits="userSpaceOnUse" gradientTransform="translate(275.35 160.014) scale(25.3328 19.7912)">
<stop stop-color="#B3B3B3"/>
<stop offset="0.13" stop-color="#B7B7B7"/>
<stop offset="0.27" stop-color="#C5C5C5"/>
<stop offset="0.42" stop-color="#DBDBDB"/>
<stop offset="0.58" stop-color="#F9F9F9"/>
<stop offset="0.6" stop-color="white"/>
<stop offset="1" stop-color="#B3B3B3"/>
</radialGradient>
</defs>
</svg>
