<svg width="19" height="20" viewBox="0 0 19 20" xmlns="http://www.w3.org/2000/svg">
    <path d="M2.978 2.45835C2.58681 2.45795 2.19939 2.53471 1.8379 2.68423C1.47642 2.83375 1.14797 3.05309 0.871357 3.3297C0.594746 3.60631 0.375403 3.93476 0.225884 4.29625C0.0763656 4.65773 -0.00039316 5.04516 1.51427e-06 5.43635C1.51427e-06 7.66935 2.978 10.9663 2.978 10.9663C2.978 10.9663 5.956 7.66935 5.956 5.43635C5.9564 5.04516 5.87964 4.65773 5.73012 4.29625C5.5806 3.93476 5.36126 3.60631 5.08465 3.3297C4.80803 3.05309 4.47959 2.83375 4.1181 2.68423C3.75661 2.53471 3.36919 2.45795 2.978 2.45835ZM2.978 6.49935C2.76776 6.49935 2.56224 6.437 2.38743 6.3202C2.21262 6.2034 2.07637 6.03738 1.99592 5.84314C1.91546 5.6489 1.89441 5.43517 1.93543 5.22897C1.97644 5.02276 2.07768 4.83336 2.22635 4.68469C2.37501 4.53603 2.56442 4.43479 2.77062 4.39377C2.97682 4.35276 3.19056 4.37381 3.38479 4.45426C3.57903 4.53472 3.74505 4.67097 3.86185 4.84578C3.97866 5.02059 4.041 5.22611 4.041 5.43635C4.04074 5.71819 3.92866 5.98842 3.72936 6.18771C3.53007 6.387 3.25985 6.49908 2.978 6.49935ZM17.986 9.25235V4.95235C17.979 4.5008 17.9103 4.05233 17.782 3.61935C17.4539 2.47467 16.7277 1.48483 15.7343 0.828208C14.7409 0.171589 13.5457 -0.108626 12.364 0.0380628C11.1823 0.184751 10.0918 0.748695 9.28912 1.62827C8.48643 2.50783 8.02429 3.64518 7.986 4.83535V5.08335L7.976 5.95335V15.9053H7.972V15.9463C7.972 16.4768 7.76129 16.9855 7.38621 17.3606C7.01114 17.7356 6.50243 17.9463 5.972 17.9463C5.44157 17.9463 4.93286 17.7356 4.55779 17.3606C4.18271 16.9855 3.972 16.4768 3.972 15.9463C3.972 15.9343 3.975 15.9223 3.976 15.9093H3.972V13.9663H1.972V15.9663H1.974C1.97466 17.0267 2.39652 18.0433 3.14676 18.7926C3.897 19.5419 4.91417 19.9625 5.9745 19.9618C7.03484 19.9612 8.05148 19.5393 8.80078 18.7891C9.55008 18.0389 9.97066 17.0217 9.97 15.9613H9.972V14.9793H9.977V6.95335L9.987 5.08335V4.83635C10.0155 4.04911 10.3524 3.30464 10.925 2.76362C11.4976 2.22261 12.26 1.92843 13.0475 1.94457C13.8351 1.96072 14.5848 2.2859 15.1347 2.84992C15.6847 3.41395 15.9908 4.1716 15.987 4.95935V9.23435C15.6041 9.45103 15.3033 9.788 15.1314 10.193C14.9594 10.598 14.9259 11.0484 15.036 11.4744C15.1462 11.9004 15.3937 12.2782 15.7404 12.5491C16.0871 12.8201 16.5135 12.9691 16.9534 12.9731C17.3934 12.977 17.8224 12.8357 18.1739 12.571C18.5254 12.3064 18.7797 11.9331 18.8975 11.5092C19.0153 11.0852 18.9899 10.6343 18.8252 10.2263C18.6606 9.81821 18.366 9.47588 17.987 9.25235H17.986Z" />
</svg>