<svg width="22" height="23" viewBox="0 0 22 23" fill="none" xmlns="http://www.w3.org/2000/svg">
    <path d="M21.4838 0.80706L21.4838 0.807164L13.2341 22.3694L13.234 22.3695C13.2188 22.4094 13.1944 22.4411 13.1664 22.463C13.1386 22.4847 13.1079 22.4963 13.0781 22.4992C13.0483 22.5022 13.0174 22.4966 12.9882 22.4817L12.7605 22.9268L12.9882 22.4817C12.959 22.4668 12.9312 22.4421 12.9102 22.4078C12.9101 22.4076 12.91 22.4074 12.9098 22.4072L12.5529 21.8187L12.5245 21.7719L12.5215 21.7687L8.18014 14.635L8.1224 14.5401L8.02993 14.4786L1.27674 9.98657L1.27518 9.98333L1.16004 9.90698L0.596308 9.53324L0.595784 9.53289C0.567 9.51386 0.540906 9.48489 0.523037 9.44693C0.505106 9.40884 0.497043 9.36487 0.500976 9.32039C0.504907 9.27594 0.520411 9.2354 0.543544 9.20303L0.138324 8.91341L0.543545 9.20303C0.56656 9.17083 0.595512 9.14879 0.625214 9.1364L1.15417 8.91618H1.15596L1.24853 8.87746L21.25 0.512757L21.2501 0.512711C21.2813 0.499635 21.3143 0.496776 21.3458 0.503545C21.3776 0.510351 21.4098 0.527378 21.4373 0.556122C21.465 0.585096 21.4863 0.624517 21.4953 0.670576L21.9849 0.574517L21.4953 0.670582C21.5044 0.716719 21.5001 0.764471 21.4838 0.80706ZM8.69944 14.7351L9.03786 15.2913L9.48791 14.8208L19.6441 4.20267H19.7762L19.899 3.88095L20.5452 2.18759L20.9609 1.09837L19.8852 1.548L18.2656 2.22506L18.1692 2.26532L18.0971 2.34077L7.79317 13.1133L7.38055 13.5446L7.87762 13.8752L8.34236 14.1843L8.34265 14.1845C8.36557 14.1997 8.38685 14.2212 8.40365 14.2489L8.40382 14.2492L8.69944 14.7351Z" stroke="black" />
</svg>