<svg width="16" height="17" viewBox="0 0 16 17" fill="#00000" xmlns="http://www.w3.org/2000/svg">
    <path d="M8.00307 6.18544C7.43856 6.18544 6.90992 6.40584 6.50966 6.80864C6.11129 7.21144 5.8904 7.74344 5.8904 8.31154C5.8904 8.87964 6.11129 9.41164 6.50966 9.81444C6.90992 10.2153 7.43856 10.4376 8.00307 10.4376C8.56758 10.4376 9.09622 10.2153 9.49648 9.81444C9.89485 9.41164 10.1157 8.87964 10.1157 8.31154C10.1157 7.74344 9.89485 7.21144 9.49648 6.80864C9.30098 6.61039 9.06829 6.45321 8.81192 6.34622C8.55555 6.23924 8.28061 6.18459 8.00307 6.18544ZM15.7873 10.6599L14.5525 9.59784C14.6111 9.23684 14.6413 8.86824 14.6413 8.50154C14.6413 8.13484 14.6111 7.76434 14.5525 7.40524L15.7873 6.34314C15.8806 6.26278 15.9473 6.15576 15.9787 6.03629C16.0101 5.91682 16.0045 5.79058 15.9629 5.67434L15.9459 5.62494C15.6061 4.66866 15.0969 3.78224 14.443 3.00865L14.4091 2.96875C14.3297 2.8748 14.2238 2.80726 14.1055 2.77504C13.9872 2.74282 13.862 2.74742 13.7464 2.78825L12.2133 3.33735C11.6469 2.86995 11.0163 2.50135 10.3329 2.24485L10.0364 0.631749C10.0141 0.51023 9.95551 0.398434 9.8685 0.311215C9.7815 0.223997 9.67018 0.165484 9.54934 0.14345L9.49837 0.13395C8.51661 -0.0446499 7.48198 -0.0446499 6.50022 0.13395L6.44925 0.14345C6.32841 0.165484 6.21709 0.223997 6.13009 0.311215C6.04308 0.398434 5.9845 0.51023 5.96214 0.631749L5.66384 2.25245C4.98685 2.51099 4.3562 2.8787 3.7966 3.34115L2.25222 2.78825C2.13661 2.7471 2.01129 2.74233 1.89292 2.77457C1.77455 2.80681 1.66873 2.87453 1.58953 2.96875L1.55555 3.00865C0.902849 3.78307 0.393804 4.66926 0.0526962 5.62494L0.0357042 5.67434C-0.0492559 5.91184 0.0206002 6.17784 0.211288 6.34314L1.46115 7.41664C1.40262 7.77384 1.3743 8.13864 1.3743 8.49964C1.3743 8.86444 1.40262 9.22924 1.46115 9.58264L0.215064 10.6561C0.121789 10.7365 0.0550306 10.8435 0.0236662 10.963C-0.00769818 11.0825 -0.00218246 11.2087 0.0394801 11.3249L0.0564721 11.3743C0.3982 12.33 0.902297 13.2135 1.55932 13.9906L1.59331 14.0305C1.6727 14.1245 1.77853 14.192 1.89682 14.2242C2.01512 14.2565 2.14035 14.2519 2.25599 14.211L3.80038 13.6581C4.363 14.1236 4.98982 14.4922 5.66761 14.7468L5.96592 16.3675C5.98828 16.489 6.04686 16.6008 6.13386 16.6881C6.22087 16.7753 6.33218 16.8338 6.45302 16.8558L6.504 16.8653C7.49542 17.0449 8.51073 17.0449 9.50214 16.8653L9.55312 16.8558C9.67396 16.8338 9.78527 16.7753 9.87228 16.6881C9.95928 16.6008 10.0179 16.489 10.0402 16.3675L10.3366 14.7544C11.0201 14.496 11.6507 14.1293 12.2171 13.6619L13.7501 14.211C13.8658 14.2522 13.9911 14.257 14.1094 14.2247C14.2278 14.1925 14.3336 14.1247 14.4128 14.0305L14.4468 13.9906C15.1038 13.2097 15.6079 12.33 15.9497 11.3743L15.9667 11.3249C16.0478 11.0893 15.978 10.8252 15.7873 10.6599ZM8.00307 11.6517C6.16982 11.6517 4.68396 10.1564 4.68396 8.31154C4.68396 6.46664 6.16982 4.97134 8.00307 4.97134C9.83632 4.97134 11.3222 6.46664 11.3222 8.31154C11.3222 10.1564 9.83632 11.6517 8.00307 11.6517Z" />
</svg>