<svg width="23" height="20" viewBox="0 0 23 20" fill="#00000" xmlns="http://www.w3.org/2000/svg">
    <path d="M20.718 4.28571H3.59375C3.19664 4.28571 2.875 3.96607 2.875 3.57143C2.875 3.17679 3.19664 2.85714 3.59375 2.85714H20.8438C21.2409 2.85714 21.5625 2.5375 21.5625 2.14286C21.5625 0.959375 20.5971 0 19.4062 0H2.875C1.28701 0 0 1.27902 0 2.85714V17.1429C0 18.721 1.28701 20 2.875 20H20.718C21.9767 20 23 19.0388 23 17.8571V6.42857C23 5.24688 21.9767 4.28571 20.718 4.28571ZM18.6875 13.5714C17.8937 13.5714 17.25 12.9317 17.25 12.1429C17.25 11.354 17.8937 10.7143 18.6875 10.7143C19.4813 10.7143 20.125 11.354 20.125 12.1429C20.125 12.9317 19.4813 13.5714 18.6875 13.5714Z" />
</svg>